<svg xmlns="http://www.w3.org/2000/svg" viewBox="0 0 16.45 17" width="140">
                            <defs><style>.svg_logo {  fill: #161615; }</style></defs>
                            <g transform="translate(-209 -110)">
                                <path class="svg_logo" d="M218.6,121.268c.2.62-.253,1.44.072,2.089a4.59,4.59,0,0,1-.941-.2,4.783,4.783,0,0,0,1.261,2.256,2.48,2.48,0,0,1-.83.671,9.189,9.189,0,0,0,2.553,1.23c.182.471-.73,1.045-1.068,1.364.323.524,1.358-.838,1.634-1.125a5.517,5.517,0,0,0,3.306-.125,2.689,2.689,0,0,1-1.071-.541,3.615,3.615,0,0,0,2.036-1.225,6.32,6.32,0,0,1-.75-.078c.2-.722,1.035-1.461.766-2.325h-.031a1.9,1.9,0,0,1-1.592,0,1.6,1.6,0,0,0,.476-1.227h-.03a1.086,1.086,0,0,1-.932.268c.707-.574-.165-2.15-.426-2.738a3.284,3.284,0,0,1-1.515,2.432c-.191-.183-.351-.43-.51-.613-.025.374-.174.72-.2,1.1-.745.171-1.858-.839-2.21-1.331Z" transform="translate(-2.707 -4.329)"></path>
                                <path class="svg_logo" d="M214.377,122.966a8.167,8.167,0,0,1,5.546-8.737,8.165,8.165,0,1,0,1.938,15.89,8.173,8.173,0,0,1-7.484-7.152" transform="translate(-1.972 -3.736)"></path>
                                <path class="svg_logo" d="M221.423,118a6.014,6.014,0,0,1,5.953,5.237,6.052,6.052,0,1,0-11.711-.91A6.013,6.013,0,0,1,221.423,118" transform="translate(-2.469 -3.879)"></path>
                            </g>
                        </svg>